<?xml version="1.0" standalone="no"?>
<!DOCTYPE svg PUBLIC "-//W3C//DTD SVG 20010904//EN"
 "http://www.w3.org/TR/2001/REC-SVG-20010904/DTD/svg10.dtd">
<svg version="1.0" xmlns="http://www.w3.org/2000/svg"
 width="1126.000000pt" height="1126.000000pt" viewBox="0 0 1126.000000 1126.000000"
 preserveAspectRatio="xMidYMid meet">

<g transform="translate(0.000000,1126.000000) scale(0.100000,-0.100000)"
fill="#000000" stroke="none">
<path d="M2513 8033 c1 -989 5 -1807 9 -1818 3 -11 9 -56 12 -100 10 -109 50
-372 81 -530 97 -490 280 -1013 511 -1465 252 -492 501 -837 874 -1211 327
-329 591 -533 984 -763 264 -155 615 -313 665 -301 48 12 284 116 421 185 630
320 1216 815 1632 1378 569 770 951 1794 1033 2767 4 39 9 84 12 100 4 17 8
823 10 1793 l4 1762 -3126 0 -3126 0 4 -1797z m4685 1350 c39 -100 59 -181 68
-265 4 -37 8 -78 9 -90 1 -13 3 -278 4 -590 l1 -568 45 0 c44 0 44 0 39 29 -5
23 -1 35 19 55 30 30 56 33 86 8 35 -27 31 -79 -8 -114 -30 -26 -37 -28 -122
-28 l-91 0 7 -27 c26 -101 26 -243 0 -341 -8 -31 -12 -58 -9 -61 8 -8 133 27
192 54 l53 24 11 -25 c10 -20 9 -27 -3 -35 -22 -14 -157 -56 -225 -69 -61 -12
-62 -13 -61 -45 1 -44 -18 -65 -59 -65 -40 0 -68 34 -59 72 6 24 3 25 -72 40
-61 12 -204 59 -221 73 -1 1 2 14 7 28 l10 26 54 -24 c49 -23 198 -67 205 -61
1 2 -5 23 -14 47 -23 62 -30 267 -11 337 l14 52 -84 0 c-115 0 -163 28 -163
96 0 22 46 64 70 64 35 0 63 -37 57 -76 l-6 -34 45 0 c28 0 44 4 44 13 1 6 1
242 0 522 0 534 8 715 39 837 20 79 79 218 92 218 4 0 21 -35 37 -77z m-3281
-113 c29 -12 57 -28 63 -34 10 -13 18 -1452 7 -1462 -3 -3 -18 1 -34 9 -113
59 -248 55 -528 -13 -74 -19 -170 -35 -222 -37 l-93 -6 0 735 0 735 88 7 c48
3 161 24 252 45 221 53 202 50 315 47 78 -2 112 -8 152 -26z m658 -14 c144
-35 267 -56 335 -56 l38 0 1 -735 1 -735 -72 0 c-72 0 -126 10 -358 65 -151
36 -287 38 -375 6 -33 -12 -67 -24 -75 -27 -13 -4 -15 79 -12 722 1 399 5 730
8 735 8 14 79 48 121 59 72 18 238 4 388 -34z m2055 -17 c0 -81 -20 -129 -78
-188 l-55 -56 -10 49 c-14 71 4 118 68 183 30 29 58 53 64 53 6 0 11 -18 11
-41z m1142 -16 c43 -41 68 -111 61 -172 -3 -28 -9 -51 -14 -51 -4 0 -30 22
-58 49 -57 55 -88 136 -76 198 l6 35 27 -18 c15 -9 39 -28 54 -41z m-941 -42
c-43 -83 -104 -129 -193 -145 l-36 -7 36 72 c33 64 43 75 87 95 28 13 67 24
88 24 l37 0 -19 -39z m757 14 c42 -19 56 -32 69 -62 8 -21 24 -51 35 -66 11
-16 18 -31 15 -34 -3 -2 -32 3 -64 12 -45 13 -69 28 -104 64 -25 26 -51 62
-57 79 -11 32 -11 32 21 32 18 0 56 -11 85 -25z m-4576 -800 l-2 -775 470 0
c406 0 474 -2 486 -15 20 -19 94 -20 120 0 16 12 91 14 484 15 l465 0 -3 775
-2 775 70 0 69 0 1 -835 c0 -459 -3 -835 -7 -835 -5 0 -231 -1 -504 -3 l-496
-2 -36 -32 c-64 -56 -142 -56 -206 2 l-38 34 -494 0 -494 0 -3 836 -2 835 62
0 63 0 -3 -775z m3429 675 c17 -74 -6 -155 -61 -219 -24 -28 -29 -24 -50 40
-19 55 0 134 47 194 40 52 49 50 64 -15z m1525 -37 c28 -57 30 -115 5 -177
-11 -28 -12 -28 -32 -10 -43 39 -64 94 -64 174 0 41 4 84 8 94 7 18 9 18 32
-4 14 -13 37 -48 51 -77z m-1238 -68 c4 -4 -10 -22 -31 -40 -36 -31 -42 -33
-140 -37 -56 -3 -103 -5 -105 -3 -1 1 8 14 20 30 37 47 92 66 176 62 40 -2 76
-7 80 -12z m1084 -21 c24 -17 44 -39 46 -52 3 -20 1 -21 -23 -12 -14 5 -59 10
-99 10 -65 0 -77 3 -114 30 -23 17 -42 34 -42 39 0 14 37 19 117 17 62 -1 78
-5 115 -32z m-1525 -60 c22 -48 25 -66 21 -123 -5 -61 -29 -131 -46 -131 -4 0
-18 21 -32 47 -33 63 -34 141 0 212 13 28 25 51 27 51 2 0 16 -25 30 -56z
m1803 -1 c33 -69 31 -146 -5 -206 -15 -26 -30 -47 -34 -47 -15 0 -43 77 -48
131 -5 47 -1 66 22 117 15 34 31 59 35 57 4 -3 18 -26 30 -52z m-1490 -41 c0
-5 -16 -27 -35 -49 -27 -32 -45 -43 -78 -48 -23 -4 -62 -16 -86 -26 -55 -24
-60 -24 -54 4 11 44 75 97 143 118 34 10 110 11 110 1z m1236 -7 c52 -15 118
-70 130 -107 9 -30 -1 -32 -48 -10 -24 11 -64 23 -90 27 -38 5 -53 13 -78 43
-16 20 -30 42 -30 49 0 18 54 17 116 -2z m-1600 -262 c15 -53 13 -122 -4 -150
-13 -21 -90 62 -103 111 -11 42 -7 144 7 167 13 22 82 -67 100 -128z m1948
122 c14 -37 17 -114 6 -154 -7 -27 -28 -61 -54 -89 l-43 -46 -13 39 c-23 69
-2 154 58 233 27 35 37 39 46 17z m-1690 -17 c-17 -57 -36 -79 -87 -102 -29
-12 -66 -35 -83 -49 -53 -45 -63 4 -14 71 33 46 63 68 118 88 58 20 75 18 66
-8z m1388 10 c76 -23 155 -113 146 -169 l-3 -22 -32 27 c-17 14 -52 35 -77 46
-47 22 -80 58 -91 103 -8 31 -2 33 57 15z m-1442 -160 c-1 -57 -22 -92 -91
-158 -40 -38 -77 -67 -81 -64 -14 9 -8 64 11 102 22 42 72 92 116 115 37 20
45 21 45 5z m1572 -82 c32 -44 49 -96 41 -126 -3 -11 -8 -20 -10 -20 -3 0 -24
19 -47 43 -23 23 -56 53 -75 67 -29 22 -34 32 -39 79 l-5 54 53 -29 c30 -16
66 -46 82 -68z m-1869 -17 c54 -45 88 -108 94 -179 3 -33 3 -60 -1 -60 -12 0
-81 48 -103 71 -33 36 -53 92 -53 149 0 60 10 63 63 19z m2092 11 c10 -33 -14
-126 -44 -167 -15 -21 -47 -48 -69 -61 l-42 -23 0 42 c0 73 21 120 77 177 57
57 68 62 78 32z m-1821 -96 c15 -40 6 -86 -28 -127 -18 -23 -43 -62 -55 -85
-21 -41 -23 -43 -36 -25 -34 44 -10 138 52 204 50 53 58 57 67 33z m1527 -5
c63 -45 110 -170 82 -223 -7 -14 -16 -26 -18 -26 -2 0 -13 19 -23 43 -11 24
-33 59 -49 78 -17 18 -33 44 -37 56 -7 22 2 93 11 93 3 0 18 -9 34 -21z
m-1783 -155 c28 -14 63 -39 76 -55 25 -29 64 -134 54 -144 -11 -11 -94 27
-126 58 -40 38 -58 71 -71 126 -11 50 -5 51 67 15z m2066 -1 c-23 -105 -67
-162 -145 -188 -28 -10 -53 -15 -56 -12 -11 12 32 112 64 148 32 36 104 79
131 79 8 0 10 -9 6 -27z m-1779 -47 c15 -53 15 -54 -10 -102 -14 -26 -28 -65
-31 -86 -8 -48 -19 -55 -38 -26 -22 34 -29 98 -17 144 10 36 63 124 76 124 2
0 11 -24 20 -54z m1521 -83 c9 -58 -1 -112 -24 -136 -19 -18 -19 -18 -31 30
-7 26 -21 66 -32 88 -22 41 -21 95 2 137 10 19 13 17 45 -27 19 -28 36 -66 40
-92z m-1457 -68 c25 -37 25 -40 15 -172 -6 -78 -7 -82 -26 -72 -29 16 -58 87
-58 146 0 49 24 133 39 133 3 0 17 -16 30 -35z m1361 -35 c22 -79 1 -174 -46
-205 l-24 -15 0 49 c0 27 -5 72 -12 99 -10 47 -9 53 17 98 26 44 29 46 41 29
8 -11 19 -35 24 -55z m-1602 -9 c44 -23 93 -73 116 -118 9 -18 16 -34 16 -36
0 -9 -109 11 -135 25 -51 27 -115 110 -115 149 0 16 71 4 118 -20z m1897 7
c-26 -86 -106 -150 -197 -156 l-61 -5 24 43 c43 77 135 137 212 139 25 1 28
-2 22 -21z m-1541 -123 c19 -25 26 -46 26 -80 0 -25 5 -66 11 -91 14 -53 8
-62 -25 -41 -39 26 -67 82 -73 146 -10 111 10 133 61 66z m1131 4 c15 -85 -15
-166 -77 -212 -34 -26 -44 -18 -29 24 6 18 11 58 11 90 0 54 3 63 36 99 20 22
40 40 44 40 5 0 11 -18 15 -41z m-1343 -91 c37 -11 138 -90 138 -108 0 -18
-102 -21 -153 -4 -60 20 -149 100 -126 115 20 12 95 11 141 -3z m344 -21 c56
-39 101 -115 108 -184 2 -24 3 -43 1 -43 -37 0 -119 68 -146 122 -23 45 -37
138 -21 138 5 0 32 -15 58 -33z m861 -22 c-7 -73 -49 -141 -110 -179 -26 -16
-50 -26 -54 -22 -12 12 16 119 42 158 25 37 98 98 118 98 6 0 8 -22 4 -55z
m428 45 c10 -17 -64 -87 -115 -109 -39 -17 -60 -20 -105 -15 -30 4 -55 9 -55
12 0 19 58 74 102 96 54 27 160 37 173 16z m-1390 -185 c55 -26 91 -52 84 -59
-15 -16 -119 -33 -159 -27 -76 12 -168 69 -140 86 51 32 150 32 215 0z m1214
5 l24 -12 -24 -20 c-45 -36 -111 -60 -164 -60 -55 0 -125 18 -125 32 0 11 49
46 92 65 39 18 160 15 197 -5z m-1822 -441 c225 -201 833 -747 1353 -1213 520
-467 952 -854 960 -862 12 -12 10 -27 -19 -116 -69 -213 -285 -726 -320 -761
-6 -6 -114 84 -298 249 -158 143 -571 514 -918 824 -346 311 -751 674 -900
808 -148 133 -272 242 -275 242 -3 0 -66 -55 -141 -123 -129 -117 -809 -728
-1759 -1582 -245 -220 -453 -406 -462 -413 -13 -11 -18 -8 -35 20 -68 116
-213 457 -294 693 l-48 140 22 22 c65 66 2713 2442 2719 2440 4 -1 191 -167
415 -368z m-363 -1713 l48 -93 104 22 c57 12 104 19 104 14 0 -5 -18 -49 -40
-98 -22 -49 -40 -91 -40 -93 0 -2 36 -33 80 -69 43 -35 79 -66 80 -69 0 -3
-46 -17 -102 -31 l-103 -25 -3 -107 c-1 -59 -6 -107 -9 -107 -4 0 -42 27 -85
60 -42 33 -81 60 -86 60 -5 0 -44 -27 -87 -60 -43 -33 -80 -58 -82 -56 -2 2
-6 50 -7 105 -2 56 -5 103 -7 105 -2 1 -48 13 -102 25 -54 13 -97 27 -95 31 3
7 44 43 126 112 l32 26 -45 95 c-25 52 -45 97 -45 100 0 3 48 -5 106 -18 l105
-23 47 94 c26 52 49 94 52 94 3 0 27 -42 54 -94z m944 -716 l43 -80 94 0 c52
0 95 -2 95 -5 0 -2 -20 -38 -45 -78 -25 -41 -45 -78 -45 -82 0 -4 20 -40 45
-79 25 -40 45 -76 45 -79 0 -3 -44 -8 -97 -9 l-98 -3 -40 -74 c-22 -41 -43
-73 -47 -73 -5 1 -27 35 -51 75 l-43 72 -97 3 c-53 1 -97 4 -97 6 0 2 20 37
45 78 25 42 45 79 45 84 0 5 -20 43 -45 84 l-45 75 97 5 97 5 44 78 c24 42 46
77 50 77 4 0 26 -36 50 -80z m-1929 -360 c5 0 53 9 106 20 53 11 99 20 101 20
2 0 -17 -43 -41 -96 -25 -53 -45 -99 -45 -103 0 -3 36 -35 80 -70 46 -37 76
-68 69 -71 -5 -4 -53 -18 -104 -31 l-94 -23 -3 -109 -3 -110 -50 40 c-27 21
-66 51 -86 66 l-36 27 -86 -65 c-48 -36 -88 -62 -88 -58 -3 12 -6 92 -8 154
l-1 57 -67 16 c-38 10 -85 22 -106 27 l-38 10 85 70 85 70 -45 96 c-24 53 -43
98 -41 100 2 2 50 -6 106 -18 56 -12 103 -20 105 -18 2 2 25 47 51 99 l48 95
48 -98 c27 -53 53 -97 58 -97z m1359 -299 l42 -79 83 -12 c45 -7 86 -15 90
-17 5 -3 -21 -35 -56 -72 l-65 -67 14 -74 c21 -120 25 -116 -70 -68 l-85 42
-82 -43 c-45 -23 -83 -40 -85 -39 -2 2 4 44 13 94 l16 90 -67 64 c-36 35 -63
67 -59 70 5 4 44 12 88 19 90 13 95 17 141 113 15 32 30 58 34 58 3 0 25 -35
48 -79z m-368 -924 c39 -86 46 -96 64 -91 12 4 59 22 106 40 47 18 86 31 88
30 1 -2 -13 -47 -33 -101 -41 -114 -42 -122 -15 -130 12 -4 58 -24 103 -45
l82 -39 -102 -47 c-57 -26 -103 -53 -103 -59 0 -7 16 -54 35 -106 19 -51 32
-95 30 -97 -2 -3 -50 12 -105 33 -55 21 -103 36 -105 33 -2 -2 -25 -49 -51
-103 l-46 -100 -44 94 c-24 51 -44 98 -44 102 0 14 -14 11 -115 -27 -53 -20
-99 -33 -102 -30 -3 3 11 51 32 106 21 55 36 102 34 104 -2 2 -49 25 -104 51
l-100 47 103 49 c117 55 111 38 61 169 -16 41 -29 80 -29 86 0 7 41 -4 106
-28 58 -22 106 -39 108 -37 1 2 22 50 46 106 25 57 47 99 50 95 4 -4 26 -51
50 -105z"/>
<path d="M7161 8623 l-1 -693 30 0 30 0 0 564 c0 581 -4 650 -44 776 -12 40
-14 -33 -15 -647z"/>
<path d="M3630 9104 c-14 -3 -100 -23 -191 -45 -91 -21 -175 -39 -186 -39 -39
0 -53 -11 -53 -42 l0 -31 63 7 c34 3 125 22 202 40 197 49 248 56 338 46 43
-5 82 -12 87 -15 6 -3 10 0 11 7 0 7 2 21 4 30 6 33 -24 43 -139 45 -61 1
-122 -1 -136 -3z"/>
<path d="M3625 8933 c-11 -2 -94 -22 -185 -43 -91 -21 -182 -41 -202 -45 -34
-5 -38 -9 -38 -37 l0 -31 58 5 c31 3 134 24 227 46 94 23 193 43 220 45 49 4
143 -5 182 -17 16 -5 19 -1 20 29 1 32 -2 35 -35 45 -36 10 -208 12 -247 3z"/>
<path d="M3620 8763 c-14 -3 -83 -20 -155 -38 -71 -18 -148 -36 -170 -39 -95
-16 -95 -15 -95 -48 l0 -31 62 7 c35 3 139 25 233 47 179 44 289 53 368 31 33
-9 37 -8 37 8 0 10 3 25 6 33 9 24 -56 37 -166 36 -52 -1 -106 -4 -120 -6z"/>
<path d="M3630 8593 c-14 -2 -97 -22 -185 -43 -88 -21 -178 -41 -200 -44 -22
-3 -41 -5 -42 -6 -2 0 -3 -14 -3 -31 l0 -32 64 7 c35 3 126 21 202 40 76 19
159 37 184 41 63 11 181 8 214 -5 40 -15 42 -14 43 25 1 32 -2 35 -35 45 -36
10 -192 12 -242 3z"/>
<path d="M3645 8424 c-226 -51 -378 -84 -407 -89 -35 -5 -38 -8 -38 -39 l0
-33 86 14 c47 7 143 28 213 45 105 27 145 32 241 33 63 0 127 -3 142 -8 26 -7
27 -6 23 24 -2 18 -9 37 -15 43 -11 11 -206 19 -245 10z"/>
<path d="M3635 8254 c-84 -21 -367 -84 -397 -89 -35 -5 -38 -9 -38 -39 l0 -33
62 9 c35 5 128 24 208 43 80 19 163 37 185 40 22 2 54 7 71 9 29 3 101 -5 154
-19 24 -6 26 -3 25 24 0 17 -6 36 -13 43 -12 12 -217 22 -257 12z"/>
<path d="M3640 8084 c-14 -3 -101 -22 -195 -44 -93 -22 -187 -42 -207 -45 -35
-5 -38 -8 -38 -39 l0 -33 62 9 c35 5 130 25 213 45 163 39 312 53 380 34 21
-6 41 -9 43 -6 9 9 4 57 -6 67 -12 12 -206 20 -252 12z"/>
<path d="M4185 9102 c-26 -6 -30 -12 -33 -46 -2 -21 1 -36 6 -33 4 4 35 10 68
16 79 12 178 1 355 -43 80 -20 173 -39 207 -42 l62 -7 0 31 c0 28 -4 32 -37
37 -21 4 -114 25 -208 47 -135 33 -193 42 -280 44 -60 2 -123 0 -140 -4z"/>
<path d="M4180 8932 c-20 -6 -26 -15 -28 -46 -3 -34 -1 -38 15 -31 33 13 128
23 178 18 28 -2 124 -22 215 -44 91 -21 193 -42 228 -45 l62 -7 0 31 c0 28 -4
32 -37 37 -21 4 -114 25 -208 47 -138 34 -191 42 -285 44 -63 2 -126 0 -140
-4z"/>
<path d="M4180 8761 c-20 -5 -26 -14 -28 -45 -3 -34 -1 -38 15 -31 32 13 127
22 178 18 27 -2 124 -22 215 -44 91 -21 193 -42 228 -45 l62 -7 0 31 c0 25 -5
33 -22 36 -37 7 -267 57 -353 77 -80 19 -244 24 -295 10z"/>
<path d="M4180 8592 c-20 -6 -26 -15 -28 -46 -3 -34 -1 -37 17 -31 96 30 196
23 413 -30 81 -19 174 -38 207 -42 l61 -6 0 31 c0 32 -14 42 -58 42 -15 0 -99
19 -187 41 -133 34 -180 41 -280 45 -66 2 -131 0 -145 -4z"/>
<path d="M4180 8422 c-20 -6 -26 -15 -28 -44 l-3 -37 33 10 c18 5 69 10 113
10 77 0 115 -7 370 -65 61 -14 127 -26 148 -26 34 0 37 2 37 29 0 28 -2 29
-67 41 -38 6 -131 27 -208 47 -112 29 -163 36 -255 39 -63 2 -126 0 -140 -4z"/>
<path d="M4185 8252 c-26 -6 -30 -12 -33 -45 -3 -35 -1 -38 17 -32 44 14 126
22 175 18 28 -2 125 -22 216 -44 91 -21 193 -42 228 -45 l62 -7 0 31 c0 28 -3
31 -42 37 -24 4 -115 25 -203 47 -131 33 -181 41 -275 44 -63 1 -128 0 -145
-4z"/>
<path d="M4185 8082 c-26 -6 -30 -12 -33 -45 -3 -37 -3 -38 25 -30 15 4 78 8
138 8 93 -1 134 -7 265 -39 85 -21 181 -41 213 -43 l57 -6 0 31 c0 28 -3 32
-37 37 -21 3 -117 24 -213 47 -177 42 -337 58 -415 40z"/>
<path d="M2055 5048 c-45 -40 -214 -193 -377 -340 l-297 -268 53 -157 c127
-372 350 -868 561 -1243 l56 -101 24 18 c13 10 76 65 139 122 64 57 118 102
120 100 1 -2 13 -22 26 -44 48 -81 205 -313 285 -420 409 -551 892 -1010 1451
-1378 203 -134 361 -224 599 -341 217 -107 349 -162 693 -288 l243 -89 232 85
c593 215 924 377 1347 659 512 341 1004 811 1395 1332 80 106 277 396 320 470
10 16 27 4 145 -104 74 -66 137 -121 140 -121 8 0 125 216 230 425 167 332
297 639 395 934 l47 143 -58 53 c-33 29 -201 181 -374 338 -247 224 -316 282
-321 269 -4 -9 -37 -110 -73 -224 -37 -115 -72 -208 -78 -208 -6 0 -56 41
-112 92 -55 51 -113 103 -127 116 l-27 24 -22 -69 c-43 -130 -141 -384 -206
-531 -398 -898 -1002 -1637 -1767 -2160 -287 -196 -635 -376 -958 -496 l-125
-46 -55 19 c-316 109 -717 311 -1014 511 -418 281 -827 669 -1147 1091 -218
286 -370 533 -538 874 -128 261 -183 391 -270 644 l-57 164 -104 -93 c-57 -52
-117 -105 -132 -119 -24 -22 -29 -23 -38 -11 -9 15 -134 389 -140 423 -3 14
-21 2 -84 -55z m73 -321 c28 -85 52 -156 52 -159 0 -3 -81 -78 -180 -167 -129
-117 -180 -168 -180 -184 0 -12 9 -76 20 -142 74 -456 100 -616 100 -627 -3
-71 -400 868 -400 945 0 13 516 487 530 487 3 0 29 -69 58 -153z m7325 -73
c139 -125 258 -232 266 -239 11 -11 11 -21 -4 -66 -67 -205 -230 -599 -336
-811 -48 -96 -61 -116 -53 -80 14 58 124 774 120 780 -2 4 -85 79 -183 166
l-179 160 53 155 c29 86 53 157 53 158 0 11 39 -22 263 -223z m-6893 -146
c293 -753 681 -1359 1210 -1888 502 -503 1061 -862 1726 -1110 l133 -50 88 31
c875 307 1640 872 2232 1649 291 381 551 844 726 1290 42 107 81 205 86 218
l9 23 38 -33 c163 -141 482 -434 482 -442 0 -18 -131 -317 -206 -471 -397
-815 -993 -1543 -1699 -2077 -460 -348 -918 -589 -1567 -823 l-187 -67 -238
87 c-378 139 -622 248 -883 393 -895 500 -1636 1246 -2173 2189 -79 139 -212
410 -291 596 l-76 177 37 34 c21 19 137 124 258 234 121 111 223 201 226 201
3 1 34 -72 69 -161z m-466 -885 c35 -71 87 -168 116 -217 28 -50 52 -93 53
-97 2 -7 -145 -141 -149 -136 -2 2 -22 129 -70 442 -8 55 -17 108 -20 118 -14
46 12 5 70 -110z m7106 -149 c-22 -148 -44 -277 -48 -286 -6 -14 -20 -5 -80
50 l-72 67 75 135 c42 74 94 174 117 222 23 48 43 86 45 84 2 -2 -14 -125 -37
-272z"/>
<path d="M2329 4171 c-36 -37 -38 -79 -5 -117 49 -57 146 -22 146 54 0 42 -46
92 -85 92 -16 0 -38 -12 -56 -29z"/>
<path d="M8839 4171 c-36 -37 -38 -79 -5 -117 49 -57 146 -22 146 54 0 42 -46
92 -85 92 -16 0 -38 -12 -56 -29z"/>
<path d="M2640 3759 c-111 -22 -275 -38 -288 -27 -24 21 -23 0 5 -56 15 -31
33 -56 41 -56 8 0 11 7 7 19 -5 15 2 20 39 30 68 17 72 15 105 -41 l30 -53
-41 -42 c-31 -32 -45 -40 -54 -32 -34 28 -28 -8 13 -81 25 -44 50 -77 55 -74
5 3 6 14 3 23 -5 18 53 92 187 240 32 35 58 70 58 77 0 7 -14 29 -31 49 -33
38 -47 40 -129 24z m30 -86 c-24 -27 -47 -52 -51 -57 -4 -4 -17 11 -29 34 -12
23 -20 43 -18 45 4 4 99 22 122 24 14 1 9 -10 -24 -46z"/>
<path d="M8499 3701 c-85 -54 -143 -183 -120 -269 25 -92 107 -156 201 -155
150 0 270 206 200 342 -52 103 -186 142 -281 82z m143 -92 c88 -44 115 -138
59 -201 -26 -30 -35 -33 -83 -33 -43 0 -64 6 -97 28 -48 32 -81 80 -81 118 0
39 41 92 80 106 39 13 68 9 122 -18z"/>
<path d="M2994 3336 c-3 -8 -3 -19 0 -24 7 -12 -32 -46 -134 -119 -110 -78
-129 -88 -143 -74 -14 14 -27 14 -27 1 0 -15 71 -110 82 -110 6 0 8 10 4 23
-5 20 7 32 85 91 50 37 93 66 95 63 3 -2 -20 -73 -51 -156 l-55 -152 26 -34
25 -34 112 83 c151 111 186 131 200 117 14 -14 27 -14 27 -1 0 15 -71 110 -82
110 -6 0 -8 -10 -5 -22 5 -19 -9 -34 -86 -95 -51 -39 -93 -68 -95 -64 -1 4 20
70 48 146 27 77 50 145 50 152 0 8 -16 36 -35 64 -26 37 -36 47 -41 35z"/>
<path d="M8110 3123 c-44 -36 -182 -221 -175 -233 4 -6 13 -5 24 2 16 10 31 3
101 -48 125 -89 172 -134 167 -156 -6 -23 13 -36 24 -15 5 8 30 41 55 72 45
55 52 81 15 58 -16 -10 -28 -6 -73 25 -82 58 -74 66 69 72 l122 5 30 45 c30
44 32 66 5 56 -8 -3 -59 -8 -114 -12 l-99 -7 6 51 c5 47 3 53 -25 81 -40 40
-88 42 -132 4z m73 -95 c17 -23 18 -31 8 -57 -7 -16 -21 -37 -30 -45 -16 -14
-21 -13 -59 15 -23 17 -42 35 -42 40 0 4 14 24 31 44 37 42 63 43 92 3z"/>
<path d="M3325 2729 c-144 -54 -180 -224 -72 -337 39 -42 92 -69 147 -78 39
-6 42 -6 38 16 -2 16 -13 27 -36 34 -38 13 -90 60 -103 93 -5 14 -9 41 -9 61
0 74 87 150 157 139 64 -11 141 -109 112 -143 -24 -29 5 -33 48 -7 l43 25 -16
31 c-63 125 -209 202 -309 166z"/>
<path d="M7642 2589 c-50 -53 -49 -62 34 -233 59 -124 75 -165 70 -187 -8 -41
10 -37 54 14 42 47 48 63 21 59 -13 -2 -27 11 -45 43 l-27 46 43 48 43 49 50
-25 c62 -31 60 -30 46 -47 -9 -11 -9 -16 0 -21 12 -8 141 114 133 126 -3 5
-17 6 -32 3 -28 -6 -120 29 -257 98 -100 51 -110 53 -133 27z m141 -138 c4 -4
-8 -22 -27 -40 l-33 -32 -32 60 c-17 33 -31 63 -31 65 0 7 111 -42 123 -53z"/>
<path d="M3797 2275 c-66 -23 -119 -86 -132 -158 -22 -116 94 -250 229 -264
151 -16 266 149 197 285 -29 56 -104 119 -164 137 -61 18 -81 18 -130 0z m178
-87 c38 -30 57 -77 45 -117 -37 -129 -159 -184 -236 -107 -26 26 -34 42 -34
70 0 121 143 219 225 154z"/>
<path d="M7270 2233 c-14 -9 -52 -40 -85 -68 -33 -28 -77 -64 -98 -79 -41 -31
-40 -41 1 -41 22 0 43 -21 120 -115 77 -97 91 -119 87 -142 -2 -16 0 -28 5
-28 13 0 150 111 150 121 0 13 -24 11 -39 -3 -10 -11 -22 -2 -63 42 -27 30
-72 84 -99 120 l-49 65 30 28 c38 34 73 35 105 2 32 -31 32 -62 -1 -96 -18
-19 -24 -33 -19 -48 9 -29 16 -27 64 17 75 67 84 158 21 215 -36 32 -92 36
-130 10z"/>
<path d="M4377 1924 c-3 -3 -1 -14 5 -24 9 -15 4 -31 -31 -91 -24 -41 -62
-102 -84 -136 -35 -53 -45 -61 -64 -57 -17 5 -23 2 -23 -10 0 -9 4 -16 8 -16
5 0 37 -18 71 -40 63 -41 90 -45 69 -10 -10 15 -6 28 22 74 37 60 44 65 58 39
9 -17 21 -129 22 -195 0 -23 9 -32 50 -53 59 -30 73 -31 65 -6 -5 17 -34 187
-35 204 0 4 22 7 49 7 57 0 87 20 100 66 10 37 -5 79 -40 110 -13 12 -69 48
-124 80 -120 71 -110 66 -118 58z m159 -147 c41 -37 41 -66 -1 -93 -22 -14
-28 -14 -69 5 -25 11 -46 25 -46 31 0 19 54 90 68 90 7 0 29 -15 48 -33z"/>
<path d="M6791 1874 c-30 -18 -59 -35 -64 -37 -6 -2 0 -52 17 -133 14 -71 26
-135 26 -142 0 -19 -15 -8 -124 85 l-95 82 -70 -41 c-39 -22 -68 -45 -65 -50
4 -5 15 -8 25 -5 16 4 33 -20 99 -136 72 -128 78 -143 64 -158 -29 -32 5 -31
61 3 60 36 68 48 31 48 -16 0 -31 12 -48 38 -42 62 -111 182 -107 186 2 2 57
-41 122 -95 66 -54 124 -99 130 -99 7 0 20 7 30 14 18 14 17 20 -12 166 -17
83 -31 156 -31 163 0 14 78 -110 113 -179 19 -38 22 -53 14 -66 -22 -34 3 -29
77 13 75 44 92 67 44 61 -29 -4 -32 1 -125 163 -56 97 -61 111 -48 125 14 15
11 32 -4 29 -3 -1 -30 -16 -60 -35z"/>
<path d="M4924 1409 c-92 -92 -135 -129 -152 -129 -38 0 -21 -19 41 -47 58
-26 80 -26 58 1 -11 12 -6 23 25 60 l37 44 55 -24 c31 -14 57 -26 59 -28 2 -2
0 -27 -4 -57 -7 -46 -12 -54 -31 -57 -38 -6 -21 -22 61 -58 90 -39 87 -39 87
-19 0 8 -5 15 -11 15 -12 0 -10 75 7 311 7 97 5 101 -67 112 -35 5 -39 2 -165
-124z m139 4 c-3 -38 -7 -70 -9 -71 -5 -6 -73 19 -79 29 -5 7 80 109 90 109 2
0 0 -30 -2 -67z"/>
<path d="M6100 1505 c-81 -36 -96 -52 -54 -57 23 -3 32 -16 76 -113 75 -164
79 -179 61 -198 -29 -29 4 -25 77 8 78 36 98 55 57 55 -22 0 -30 12 -72 108
-81 185 -80 180 -61 201 14 16 13 33 -3 30 -3 0 -40 -16 -81 -34z"/>
<path d="M5613 1242 c-59 -9 -83 -103 -38 -147 69 -70 187 31 130 112 -17 24
-60 40 -92 35z"/>
</g>
</svg>
